<svg id="Ebene_1" data-name="Ebene 1" xmlns="http://www.w3.org/2000/svg" viewBox="0 0 153 154"><defs><style>.cls-1{fill:#0c9;}</style></defs><title>version1</title><path class="cls-1" d="M92.74121,86.48828a.7496.7496,0,0,1-.53418-.2207L56.9375,50.96289a.75245.75245,0,0,1-.21777-.48633L53.89844,3.30713a.70931.70931,0,0,1,.17969-.55225.83111.83111,0,0,1,.5957-.24756.69048.69048,0,0,1,.64941.42578L82.752,59.26709a2.73845,2.73845,0,0,0,1.57227,1.39453l64.17969,22.26416a.75168.75168,0,0,1-.21777,1.46094Z"/><path d="M54.97168,4.49435l26.88208,55.2103a3.72613,3.72613,0,0,0,2.14307,1.90176l62.92847,21.831-54.0874,2.047L57.71216,50.3225,54.97168,4.49435M54.67383,1.5074a1.735,1.735,0,0,0-1.77319,1.85915l2.8208,47.16978a1.75151,1.75151,0,0,0,.50928,1.133l35.269,35.30526a1.75085,1.75085,0,0,0,1.23853.5135c.02222,0,.04419-.00041.06641-.00125l55.51929-2.101a1.751,1.751,0,0,0,.50757-3.40416L84.65234,59.71687a1.75071,1.75071,0,0,1-1.00049-.88779L56.2229,2.49545a1.68671,1.68671,0,0,0-1.54907-.988Z"/><path class="cls-1" d="M83.97363,148.61133a.69708.69708,0,0,1-.69336-.50781L61.20215,83.85938a2.72884,2.72884,0,0,0-1.38965-1.5752L3.55859,54.69043a.70627.70627,0,0,1-.40137-.84033.71543.71543,0,0,1,.71484-.58545L51.09863,56.2251a.74845.74845,0,0,1,.48438.21973L86.78516,91.81641a.7576.7576,0,0,1,.21875.56152l-2.2627,55.51172a.7304.7304,0,0,1-.76758.72168Z"/><path d="M5.12109,54.3428,50.94116,57.217,86.00024,92.44473l-2.20459,54.08183L62.14819,83.53413a3.7277,3.7277,0,0,0-1.89526-2.14856L5.12109,54.3428m-1.249-2.07832a1.75144,1.75144,0,0,0-.75342,3.32376l56.25342,27.593a1.75116,1.75116,0,0,1,.88477,1.003l22.07764,64.244a1.69219,1.69219,0,0,0,1.63916,1.18323,1.72215,1.72215,0,0,0,1.7666-1.681l2.2627-55.5128a1.75052,1.75052,0,0,0-.5083-1.30653L52.29224,55.73929a1.75064,1.75064,0,0,0-1.13159-.51242L3.99927,52.26849c-.043-.00269-.08545-.004-.1272-.004Z"/></svg>