<svg  viewBox="0 0 153 154"><defs><style>.prefix__cls-1{fill:#0c9}</style></defs><path class="prefix__cls-1" d="M92.741 86.488a.75.75 0 01-.534-.22l-35.27-35.305a.752.752 0 01-.217-.486l-2.822-47.17a.71.71 0 01.18-.552.831.831 0 01.596-.248.69.69 0 01.65.426l27.428 56.334a2.738 2.738 0 001.572 1.395l64.18 22.264a.752.752 0 01-.218 1.46z"/><path d="M54.972 4.494l26.882 55.21a3.726 3.726 0 002.143 1.902l62.928 21.831-54.087 2.047-35.126-35.161-2.74-45.829m-.298-2.987a1.735 1.735 0 00-1.773 1.86l2.82 47.17a1.752 1.752 0 00.51 1.132L91.5 86.975a1.75 1.75 0 001.238.513l.067-.001 55.519-2.101a1.751 1.751 0 00.508-3.404l-64.18-22.265a1.75 1.75 0 01-1-.888L56.222 2.495a1.687 1.687 0 00-1.548-.988z"/><path class="prefix__cls-1" d="M83.974 148.611a.697.697 0 01-.694-.507L61.202 83.859a2.729 2.729 0 00-1.39-1.575L3.56 54.69a.706.706 0 01-.402-.84.715.715 0 01.715-.585l47.227 2.96a.748.748 0 01.484.22l35.202 35.371a.758.758 0 01.219.562L84.74 147.89a.73.73 0 01-.767.721z"/><path d="M5.121 54.343l45.82 2.874 35.06 35.228-2.205 54.082-21.648-62.993a3.728 3.728 0 00-1.895-2.148L5.12 54.343m-1.249-2.079a1.751 1.751 0 00-.753 3.324l56.253 27.593a1.751 1.751 0 01.885 1.003l22.078 64.244a1.692 1.692 0 001.639 1.183 1.722 1.722 0 001.766-1.68l2.263-55.513a1.75 1.75 0 00-.508-1.307L52.292 55.74a1.75 1.75 0 00-1.131-.512L3.999 52.268a2.038 2.038 0 00-.127-.004z"/></svg>