<svg viewBox="0 0 110 26" fill="#fff"
  fill-rule="evenodd" stroke="#fff" stroke-linecap="round" stroke-linejoin="round">
  <g overflow="visible" x=".5" y=".5">
    <g stroke="none">
      <path
        d="M6.983 9.078q0 1.2-.336 1.94-.336.75-1.37 1.242 1.034.464 1.37 1.242.336.75.336 1.914v4.577q0 1.242.464 1.758.464.543 1.603.543h2.095q.646 0 .646.647v.672q0 .646-.646.646H9.05q-2.276 0-3.284-.983-.983-.983-.983-3.284v-4.577q0-1.164-.464-1.655-.464-.517-1.604-.517H.647Q0 13.24 0 12.595v-.672q0-.646.647-.646h2.07q1.138 0 1.604-.517.464-.517.464-1.683V4.524q0-2.302.983-3.284Q6.774.257 9.05.257h2.095q.646 0 .646.647v.672q0 .647-.646.647H9.05q-1.138 0-1.603.543-.464.543-.464 1.758zM27.82 0q.646 0 .646.647v1.707q0 .646-.646.646h-1.683q-.646 0-.646-.646V.647q0-.646.646-.646zm0 6.724q.646 0 .646.646v9.18q0 3.802-1.784 5.51-1.758 1.734-4.5 1.734-2.043 0-3.88-.776-.412-.155-.412-.543 0-.155.078-.3l.26-.62q.155-.412.543-.412.18 0 .284.05 1.63.595 3.13.595 1.888 0 2.974-1.2 1.086-1.2 1.086-4.034v-7.8h-7.216q-.646 0-.646-.647v-.726q0-.647.646-.647zm19.85 1.474q-.155.57-.776.464-1.474-.233-2.328-.233-1.293 0-2.172.44-.88.412-.88 1.2 0 .672.698 1.2.698.517 1.94.672 2.302.284 3.414 1.345 1.138 1.06 1.138 2.6 0 1.8-1.422 2.922-1.422 1.112-4.01 1.112-1.734 0-3.49-.285-.543-.078-.543-.57 0-.13.026-.207l.155-.672q.103-.595.75-.517 1.5.26 3.103.26 1.552 0 2.38-.57.853-.57.853-1.474 0-.75-.647-1.293-.62-.543-1.965-.672-2.146-.207-3.362-1.267-1.215-1.086-1.215-2.586 0-1.578 1.32-2.586 1.32-1.01 3.672-1.01 1.526 0 3.05.285.517.078.517.57 0 .13-.026.207zm32.666-.724q0-.57.595-.698 2.07-.3 4.396-.3 2.897 0 4.2 1.215Q90.8 8.87 90.8 11.7v7.32q0 .646-.647.646h-.905q-.647 0-.647-.646V11.7q0-1.8-.75-2.535-.75-.724-2.535-.724-1.242 0-2.793.103v10.474q0 .646-.647.646h-.905q-.647 0-.647-.646zm21.485-2.948q0-1.215-.464-1.758-.464-.543-1.603-.543H97.66q-.647 0-.647-.647V.905q0-.647.647-.647h2.095q2.276 0 3.258.983 1.01.983 1.01 3.284v4.552q0 1.164.464 1.683.464.517 1.603.517h2.07q.647 0 .647.646v.673q0 .646-.647.646h-2.07q-1.138 0-1.603.517-.464.49-.464 1.655v4.577q0 2.302-.983 3.284-.983.983-3.284.983H97.66q-.647 0-.647-.647v-.672q0-.646.647-.646h2.095q1.138 0 1.603-.543.464-.517.464-1.758v-4.577q0-1.164.336-1.914.336-.776 1.37-1.242-1.034-.49-1.37-1.242-.336-.75-.336-1.94z"
        fill="#fff" fill-rule="nonzero" />
      <path
        d="M64.166 16.73c3.555 4.846 7.033-1.353 7.03-5.08-.007-4.407-4.474-6.87-7.032-6.87-4.106 0-8.017 3.394-8.017 8.037 0 5.16 4.483 8.02 8.017 8.02-.8-.115-3.465-.686-3.5-6.825-.024-4.152 1.354-5.81 3.495-5.08.048.018 2.36.93 2.36 3.91 0 2.968-2.353 3.888-2.353 3.888z"
        fill="grey"  />
      <path
        d="M64.162 8.926c-2.35-.81-5.226 1.126-5.226 5.004 0 6.33 4.69 6.906 5.26 6.906 4.106 0 8.017-3.394 8.017-8.037 0-5.16-4.483-8.02-8.017-8.02.98-.136 5.276 1.06 5.276 6.933 0 3.83-3.21 5.915-5.296 5.024-.048-.018-2.36-.93-2.36-3.91 0-2.968 2.346-3.898 2.346-3.898z"
        fill="white"  />
    </g>
  </g>
</svg>