<svg viewBox="0 0 428 111" xmlns="http://www.w3.org/2000/svg" fill-rule="evenodd" clip-rule="evenodd"
  stroke-linejoin="round" stroke-miterlimit="1.414">
  <g fill-rule="nonzero">
    <path
      d="M393.521 53.882c1.102 1.105 1.523 2.501 1.523 4.939V61c0 2.434-.421 3.831-1.523 4.934-1.106 1.104-2.569 1.562-4.973 1.562h-4.97v6.5h-4.547V52.323h9.517c2.404 0 3.867.456 4.973 1.559zm-3.024 5.169c0-2.147-.452-2.601-2.599-2.601h-4.32v6.918h4.32c2.147 0 2.599-.451 2.599-2.597v-1.72zm-26.681-6.727h-4.55v15.14c0 2.466.424 3.863 1.53 4.966 1.1 1.108 2.563 1.563 4.97 1.563h3.018c2.406 0 3.867-.455 4.973-1.563 1.104-1.103 1.525-2.5 1.525-4.966v-15.14h-4.549v14.943c0 2.146-.454 2.6-2.6 2.6h-1.718c-2.145 0-2.599-.454-2.599-2.6V52.324zm-9.775 1.558c1.106 1.105 1.524 2.501 1.524 4.972v8.609c0 2.467-.418 3.867-1.524 4.967-1.104 1.108-2.565 1.566-4.97 1.566h-3.021c-2.405 0-3.867-.458-4.972-1.566-1.104-1.1-1.528-2.5-1.528-4.967v-8.609c0-2.471.424-3.867 1.528-4.972 1.105-1.103 2.567-1.559 4.972-1.559h3.021c2.405 0 3.866.456 4.97 1.559zm-3.022 5.169c0-2.147-.454-2.601-2.598-2.601h-1.723c-2.144 0-2.597.454-2.597 2.601v8.216c0 2.146.453 2.6 2.597 2.6h1.723c2.144 0 2.598-.454 2.598-2.6v-8.216zM336.77 73.996h-5.426l-4.354-7.054h-2.339v7.054h-4.547V52.324h9.517c2.408 0 3.867.455 4.972 1.558 1.105 1.106 1.526 2.501 1.526 4.938v1.626c0 3.862-1.104 5.455-4.417 6.367l5.068 7.183zm-5.198-14.946c0-2.146-.455-2.602-2.6-2.602h-4.321v6.369h4.321c2.145 0 2.6-.455 2.6-2.6V59.05zm-23.283 6.138l.421-4.096h7.146v6.371c0 2.6-.421 3.93-1.524 5.001-1.106 1.074-2.566 1.528-4.972 1.528h-3.024c-2.401 0-3.864-.454-4.969-1.559-1.104-1.106-1.526-2.503-1.526-4.97v-8.646c0-2.437.422-3.83 1.526-4.935 1.105-1.103 2.568-1.559 4.969-1.559h3.024c4.222 0 6.008 1.428 6.496 5.232l-4.548.422c-.26-1.235-.748-1.531-2.598-1.531h-1.725c-2.14 0-2.597.458-2.597 2.605v8.182c0 2.18.457 2.634 2.597 2.634h1.725c2.144 0 2.598-.454 2.598-2.634v-2.045h-3.019z"
      fill="#84bc34" />
    <path
      d="M197.054 37.069c5.096 0 8.175.965 10.627 3.349 2.389 2.319 3.285 5.336 3.285 10.564v23.093h-7.753l.002-21.722c0-4.263-.281-5.612-1.312-6.705-.994-1.053-2.23-1.308-6.702-1.308l-8.899.002v29.733h-7.753V37.069h18.505zm88.357 37.035h-7.572c-5.099 0-8.179-.968-10.632-3.353-2.417-2.35-3.282-5.33-3.282-10.563V44.37h-4.591v-7.271h4.591v-9.116h7.753v9.116h10.542l-.945 7.271h-9.597v15.818c0 5.61 1.374 6.642 8.009 6.642h5.724v7.274zm-32.529-15.06h-25.573c.003 4.368.29 5.731 1.316 6.758.988.986 2.229 1.306 6.706 1.306h1.779c4.406 0 5.615-.216 6.709-1.31.493-.493.838-1.031 1.055-1.934h7.904c-1.295 7.47-5.191 10.319-13.813 10.319h-5.488c-5.099 0-8.251-.961-10.637-3.348-2.354-2.356-3.284-5.343-3.284-10.576v-9.304c0-5.233.898-8.251 3.284-10.639 2.388-2.387 5.54-3.349 10.639-3.349h5.482c5.099 0 8.247.962 10.635 3.277 2.389 2.322 3.29 5.201 3.29 10.711l-.004 8.089zM237.11 44.039h-1.779c-7.09 0-7.996.795-8.019 7.117v1.022h17.811l.006-1.022c.027-6.322-.929-7.117-8.019-7.117zM62.665 74.075V37.07H76.33c9.914 0 13.736 3.6 13.914 12.323h-7.832c-.114-1.661-.483-2.849-1.346-3.741-1.072-1.109-2.498-1.313-6.892-1.313l-3.76.004v29.732h-7.749zm-7.422-29.733H44.757v29.733h-7.751V44.342h-4.589v-7.273h4.59c.089-5.43.923-8.06 3.283-10.354 2.454-2.384 5.532-3.345 10.628-3.345h7.574v7.27h-5.725c-6.614 0-7.845.737-8.006 6.429h11.5l-1.018 7.273zm72.872 14.702H102.54c.008 4.368.292 5.731 1.319 6.758.987.986 2.226 1.306 6.703 1.306h1.78c4.408 0 5.616-.216 6.71-1.31.494-.493.837-1.031 1.054-1.934h7.905c-1.292 7.47-5.191 10.319-13.814 10.319h-5.489c-5.098 0-8.25-.961-10.636-3.348-2.356-2.356-3.285-5.343-3.285-10.576v-9.304c0-5.233.899-8.251 3.287-10.639 2.388-2.387 5.538-3.349 10.638-3.349h5.48c5.099 0 8.247.962 10.638 3.277 2.389 2.322 3.287 5.201 3.287 10.711l-.002 8.089zm-15.773-15.005h-1.78c-7.091 0-7.997.795-8.014 7.117l-.006 1.022h17.812l.004-1.022c.031-6.322-.926-7.117-8.016-7.117zm57.442 15.005h-25.573c.006 4.368.29 5.731 1.317 6.758.989.986 2.226 1.306 6.703 1.306h1.78c4.408 0 5.618-.216 6.714-1.31.492-.493.834-1.031 1.05-1.934h7.906c-1.293 7.47-5.193 10.319-13.815 10.319h-5.49c-5.097 0-8.249-.961-10.633-3.348-2.358-2.356-3.284-5.343-3.284-10.576v-9.304c0-5.233.898-8.251 3.284-10.639 2.388-2.387 5.54-3.349 10.639-3.349h5.481c5.099 0 8.248.962 10.634 3.277 2.391 2.322 3.29 5.201 3.287 10.711v8.089zm-15.773-15.005h-1.78c-7.091 0-7.998.795-8.014 7.117l-.004 1.022h17.812l.003-1.022c.029-6.322-.924-7.117-8.017-7.117z"
      fill="#21314d" />
  </g>
</svg>