<svg viewBox="0 0 543 117" xmlns="http://www.w3.org/2000/svg">
  <g fill="none" fill-rule="evenodd">
    <path
      d="M140.653 114.788h-29.064a1.417 1.417 0 01-1.417-1.417V2.819c0-.782.634-1.417 1.417-1.417h29.064c.783 0 1.417.635 1.417 1.417V113.37c0 .782-.634 1.417-1.417 1.417M56.19 1.457c-.783 0-1.417.635-1.417 1.417V58.15h.013c0 14.504-11.757 26.262-26.26 26.262a26.13 26.13 0 01-11.939-2.872c-.674-.345-1.502-.074-1.88.582L.191 107.262a1.421 1.421 0 00.535 1.954 57.835 57.835 0 0027.054 7.076c32.387.408 58.89-26.637 58.89-59.027V2.875c0-.783-.634-1.418-1.417-1.418H56.19zM175.355 2.396a4.704 4.704 0 00-7.594 3.709V113.37c0 .783.634 1.418 1.417 1.418h29.043c.783 0 1.417-.635 1.417-1.418V65.324l24.816-24.646-49.1-38.282z"
      fill="#00828C" />
    <path
      d="M355.35 83.691v-.014h-16.544V32.576h16.543v-.03c13.836.72 24.828 11.893 24.828 25.573 0 13.679-10.992 24.853-24.828 25.572m0-82.241l-47.025-.033c-.782 0-1.417.635-1.417 1.417v106.284a5.67 5.67 0 005.67 5.67l42.772.015v-.015c31.436-.738 56.693-25.817 56.693-56.669 0-30.852-25.257-55.932-56.693-56.669M484.282 84.355c-14.495 0-26.245-11.75-26.245-26.245 0-14.495 11.75-26.246 26.245-26.246 14.495 0 26.245 11.751 26.245 26.246s-11.75 26.245-26.245 26.245m0-84.355c-32.093 0-58.11 26.016-58.11 58.11 0 32.093 26.017 58.11 58.11 58.11 32.094 0 58.11-26.017 58.11-58.11 0-32.094-26.016-58.11-58.11-58.11M276.444 1.402h-.65c-.626 0-1.236.208-1.732.592l-49.608 38.684 24.815 24.645v48.047c0 .783.635 1.418 1.418 1.418h29.042c.783 0 1.418-.635 1.418-1.418V6.105a4.703 4.703 0 00-4.703-4.703"
      fill="#006678" />
    <path d="M199.638 65.323l23.815 23.735a1.418 1.418 0 002 0l23.816-23.735-24.816-24.646-24.815 24.646z"
      fill="#005469" />
  </g>
</svg>